<svg width="60" height="6" viewBox="0 0 60 6" fill="none" xmlns="http://www.w3.org/2000/svg">
<path d="M60 3L55 0.113249V5.88675L60 3ZM0 3.5H0.625V2.5H0V3.5ZM1.875 3.5H3.125V2.5H1.875V3.5ZM4.375 3.5H5.625V2.5H4.375V3.5ZM6.875 3.5H8.125V2.5H6.875V3.5ZM9.375 3.5H10.625V2.5H9.375V3.5ZM11.875 3.5H13.125V2.5H11.875V3.5ZM14.375 3.5H15V2.5H14.375V3.5ZM43.8 3.5H44.3786V2.5H43.8V3.5ZM45.5357 3.5H46.6929V2.5H45.5357V3.5ZM47.85 3.5H49.0071V2.5H47.85V3.5ZM50.1643 3.5H51.3214V2.5H50.1643V3.5ZM52.4786 3.5H53.6357V2.5H52.4786V3.5ZM54.7929 3.5H55.95V2.5H54.7929V3.5ZM57.1071 3.5H58.2643V2.5H57.1071V3.5Z" fill="white" fill-opacity="0.6"/>
</svg>
