<svg width="99" height="44" viewBox="0 0 99 44" fill="none" xmlns="http://www.w3.org/2000/svg">
<path d="M88.26 13.0001C83.17 12.8601 79 16.9501 79 22.0001H77.21C76.76 22.0001 76.54 22.5401 76.86 22.8501L79.65 25.6501C79.85 25.8501 80.16 25.8501 80.36 25.6501L83.15 22.8501C83.2191 22.7796 83.2658 22.6902 83.2842 22.5932C83.3026 22.4962 83.2918 22.396 83.2533 22.3051C83.2148 22.2142 83.1503 22.1367 83.0678 22.0824C82.9854 22.0281 82.8887 21.9995 82.79 22.0001H81C81 18.1001 84.18 14.9501 88.1 15.0001C91.82 15.0501 94.95 18.1801 95 21.9001C95.05 25.8101 91.9 29.0001 88 29.0001C86.39 29.0001 84.9 28.4501 83.72 27.5201C83.5284 27.3692 83.2881 27.294 83.0448 27.3087C82.8014 27.3235 82.5719 27.4272 82.4 27.6001C81.98 28.0201 82.01 28.7301 82.48 29.0901C84.0511 30.3325 85.997 31.0058 88 31.0001C93.05 31.0001 97.14 26.8301 97 21.7401C96.87 17.0501 92.95 13.1301 88.26 13.0001ZM87.75 18.0001C87.34 18.0001 87 18.3401 87 18.7501V22.4301C87 22.7801 87.19 23.1101 87.49 23.2901L90.61 25.1401C90.97 25.3501 91.43 25.2301 91.64 24.8801C91.85 24.5201 91.73 24.0601 91.38 23.8501L88.5 22.1401V18.7401C88.5 18.3401 88.16 18.0001 87.75 18.0001Z" fill="white"/>
</svg>
